<?xml version="1.0" standalone="no"?><svg xmlns="http://www.w3.org/2000/svg" viewBox="0 0 1440 320"><path fill="#ffffff" fill-opacity="1" d="M0,160L34.3,149.3C68.6,139,137,117,206,133.3C274.3,149,343,203,411,213.3C480,224,549,192,617,176C685.7,160,754,160,823,149.3C891.4,139,960,117,1029,133.3C1097.1,149,1166,203,1234,197.3C1302.9,192,1371,128,1406,96L1440,64L1440,0L1405.7,0C1371.4,0,1303,0,1234,0C1165.7,0,1097,0,1029,0C960,0,891,0,823,0C754.3,0,686,0,617,0C548.6,0,480,0,411,0C342.9,0,274,0,206,0C137.1,0,69,0,34,0L0,0Z"></path></svg>